<svg width="72" height="71" viewBox="0 0 72 71" fill="none" xmlns="http://www.w3.org/2000/svg">
<path d="M71.5213 20.7357V50.2198C71.5213 55.5344 69.3978 60.6313 65.6181 64.3892C61.8384 68.1471 56.712 70.2583 51.3666 70.2583C46.0212 70.2583 40.8948 68.1471 37.1151 64.3892C33.3353 60.6313 31.2119 55.5344 31.2119 50.2198V20.7357C31.2119 15.4212 33.3353 10.3243 37.1151 6.56639C40.8948 2.80845 46.0212 0.697266 51.3666 0.697266C56.712 0.697266 61.8384 2.80845 65.6181 6.56639C69.3978 10.3243 71.5213 15.4212 71.5213 20.7357ZM40.9248 50.2198C40.9248 52.9732 42.0249 55.6138 43.9831 57.5607C45.9413 59.5077 48.5973 60.6015 51.3666 60.6015C54.1359 60.6015 56.7918 59.5077 58.7501 57.5607C60.7083 55.6138 61.8084 52.9732 61.8084 50.2198V20.7357C61.8084 17.9824 60.7083 15.3417 58.7501 13.3948C56.7918 11.4479 54.1359 10.3541 51.3666 10.3541C48.5973 10.3541 45.9413 11.4479 43.9831 13.3948C42.0249 15.3417 40.9248 17.9824 40.9248 20.7357V50.2198Z" fill="#D3D3D3"/>
<path d="M40.8077 20.7354V50.2195C40.8077 55.4946 38.7 60.5536 34.9483 64.2837C31.1967 68.0137 26.1083 70.1092 20.8026 70.1092C15.497 70.1092 10.4086 68.0137 6.65693 64.2837C2.90525 60.5536 0.797607 55.4946 0.797607 50.2195V20.7354C0.797607 15.4603 2.90525 10.4013 6.65693 6.67124C10.4086 2.9412 15.497 0.845703 20.8026 0.845703C26.1083 0.845703 31.1967 2.9412 34.9483 6.67124C38.7 10.4013 40.8077 15.4603 40.8077 20.7354ZM10.4381 50.2195C10.4381 52.9525 11.53 55.5736 13.4738 57.5062C15.4175 59.4387 18.0538 60.5243 20.8026 60.5243C23.5515 60.5243 26.1878 59.4387 28.1315 57.5062C30.0752 55.5736 31.1672 52.9525 31.1672 50.2195V20.7354C31.1672 18.0024 30.0752 15.3813 28.1315 13.4488C26.1878 11.5163 23.5515 10.4306 20.8026 10.4306C18.0538 10.4306 15.4175 11.5163 13.4738 13.4488C11.53 15.3813 10.4381 18.0024 10.4381 20.7354V50.2195Z" fill="#D3D3D3"/>
<path d="M37.4899 33.262V37.6939C37.4899 38.4927 37.1708 39.2589 36.6026 39.8237C36.0345 40.3886 35.2639 40.7059 34.4604 40.7059C33.6569 40.7059 32.8864 40.3886 32.3182 39.8237C31.7501 39.2589 31.4309 38.4927 31.4309 37.6939V33.262C31.4309 32.4632 31.7501 31.6971 32.3182 31.1322C32.8864 30.5673 33.6569 30.25 34.4604 30.25C35.2639 30.25 36.0345 30.5673 36.6026 31.1322C37.1708 31.6971 37.4899 32.4632 37.4899 33.262ZM32.8916 37.6939C32.9004 38.1019 33.0696 38.4902 33.3629 38.7756C33.6563 39.061 34.0504 39.2208 34.4608 39.2208C34.8712 39.2208 35.2653 39.061 35.5586 38.7756C35.8519 38.4902 36.0211 38.1019 36.03 37.6939V33.262C36.0211 32.8541 35.8519 32.4658 35.5586 32.1804C35.2653 31.8949 34.8712 31.7351 34.4608 31.7351C34.0504 31.7351 33.6563 31.8949 33.3629 32.1804C33.0696 32.4658 32.9004 32.8541 32.8916 33.262V37.6939Z" fill="#383838"/>
<path d="M45.4721 33.262V37.6939C45.4721 38.4927 45.1529 39.2589 44.5848 39.8237C44.0166 40.3886 43.2461 40.7059 42.4426 40.7059C41.6391 40.7059 40.8686 40.3886 40.3004 39.8237C39.7323 39.2589 39.4131 38.4927 39.4131 37.6939V33.262C39.4131 32.4632 39.7323 31.6971 40.3004 31.1322C40.8686 30.5673 41.6391 30.25 42.4426 30.25C43.2461 30.25 44.0166 30.5673 44.5848 31.1322C45.1529 31.6971 45.4721 32.4632 45.4721 33.262ZM40.8731 37.6939C40.8731 38.1078 41.0384 38.5047 41.3328 38.7973C41.6271 39.09 42.0263 39.2544 42.4426 39.2544C42.8589 39.2544 43.2581 39.09 43.5524 38.7973C43.8468 38.5047 44.0121 38.1078 44.0121 37.6939V33.262C44.0121 32.8482 43.8468 32.4513 43.5524 32.1586C43.2581 31.866 42.8589 31.7016 42.4426 31.7016C42.0263 31.7016 41.6271 31.866 41.3328 32.1586C41.0384 32.4513 40.8731 32.8482 40.8731 33.262V37.6939Z" fill="#383838"/>
<path d="M53.455 30.2686H51.9972C51.9972 30.2945 51.9972 30.3205 51.9972 30.3465V37.6937C51.9972 38.5493 50.4277 39.2448 50.4277 39.2448C50.4277 39.2448 48.8582 38.5493 48.8582 37.6937V30.3465C48.8582 30.3205 48.8582 30.2945 48.8582 30.2686H47.3967C47.3967 30.2945 47.3967 30.3205 47.3967 30.3465V37.6937C47.3967 39.3451 50.4262 40.6877 50.4262 40.6877C50.4262 40.6877 53.4558 39.3451 53.4558 37.6937V30.3465C53.4558 30.3205 53.4558 30.2945 53.455 30.2686Z" fill="#383838"/>
<path d="M29.5136 33.262V37.6939C29.5136 38.4927 29.1944 39.2589 28.6263 39.8237C28.0581 40.3886 27.2876 40.7059 26.4841 40.7059C25.6806 40.7059 24.9101 40.3886 24.3419 39.8237C23.7738 39.2589 23.4546 38.4927 23.4546 37.6939V33.262C23.4546 32.4632 23.7738 31.6971 24.3419 31.1322C24.9101 30.5673 25.6806 30.25 26.4841 30.25C27.2876 30.25 28.0581 30.5673 28.6263 31.1322C29.1944 31.6971 29.5136 32.4632 29.5136 33.262ZM24.9146 37.6939C24.9146 38.1078 25.0799 38.5047 25.3743 38.7973C25.6686 39.09 26.0678 39.2544 26.4841 39.2544C26.9004 39.2544 27.2996 39.09 27.5939 38.7973C27.8883 38.5047 28.0536 38.1078 28.0536 37.6939V33.262C28.0536 32.8482 27.8883 32.4513 27.5939 32.1586C27.2996 31.866 26.9004 31.7016 26.4841 31.7016C26.0678 31.7016 25.6686 31.866 25.3743 32.1586C25.0799 32.4513 24.9146 32.8482 24.9146 33.262V37.6939Z" fill="#383838"/>
<path d="M24.8969 33.2621V37.694C24.8969 38.4869 24.58 39.2473 24.0161 39.808C23.4522 40.3687 22.6873 40.6837 21.8898 40.6837C21.0923 40.6837 20.3275 40.3687 19.7635 39.808C19.1996 39.2473 18.8828 38.4869 18.8828 37.694V33.2621C18.8828 32.4692 19.1996 31.7088 19.7635 31.1481C20.3275 30.5874 21.0923 30.2725 21.8898 30.2725C22.6873 30.2725 23.4522 30.5874 24.0161 31.1481C24.58 31.7088 24.8969 32.4692 24.8969 33.2621ZM20.3319 37.694C20.3319 38.1048 20.496 38.4988 20.7882 38.7893C21.0804 39.0798 21.4766 39.2429 21.8898 39.2429C22.303 39.2429 22.6993 39.0798 22.9915 38.7893C23.2836 38.4988 23.4478 38.1048 23.4478 37.694V33.2621C23.4478 32.8513 23.2836 32.4574 22.9915 32.1669C22.6993 31.8764 22.303 31.7132 21.8898 31.7132C21.4766 31.7132 21.0804 31.8764 20.7882 32.1669C20.496 32.4574 20.3319 32.8513 20.3319 33.2621V37.694Z" fill="#383838"/>
<path d="M41.1768 44.0776C41.0107 44.0776 40.8615 44.0414 40.7294 43.9689C40.5995 43.8965 40.4972 43.7953 40.4226 43.6654C40.3481 43.5334 40.3108 43.3853 40.3108 43.2213C40.3108 43.0573 40.3481 42.9104 40.4226 42.7804C40.4972 42.6505 40.5995 42.5493 40.7294 42.4769C40.8615 42.4045 41.0107 42.3683 41.1768 42.3683C41.3217 42.3683 41.4506 42.3971 41.5635 42.4546C41.6786 42.5099 41.7691 42.5919 41.8352 42.7006L41.6658 42.8156C41.6104 42.7325 41.5401 42.6708 41.4549 42.6303C41.3697 42.5877 41.277 42.5664 41.1768 42.5664C41.0554 42.5664 40.9457 42.5941 40.8477 42.6495C40.7518 42.7027 40.6762 42.7794 40.6208 42.8795C40.5675 42.9796 40.5409 43.0935 40.5409 43.2213C40.5409 43.3513 40.5675 43.4663 40.6208 43.5664C40.6762 43.6644 40.7518 43.741 40.8477 43.7964C40.9457 43.8497 41.0554 43.8763 41.1768 43.8763C41.277 43.8763 41.3697 43.856 41.4549 43.8156C41.5401 43.7751 41.6104 43.7133 41.6658 43.6303L41.8352 43.7453C41.7691 43.8539 41.6786 43.937 41.5635 43.9945C41.4485 44.0499 41.3196 44.0776 41.1768 44.0776Z" fill="#383838"/>
<path d="M42.9399 44.0776C42.778 44.0776 42.632 44.0414 42.5021 43.9689C42.3721 43.8944 42.2699 43.7922 42.1953 43.6622C42.1207 43.5323 42.0834 43.3853 42.0834 43.2213C42.0834 43.0573 42.1207 42.9104 42.1953 42.7804C42.2699 42.6505 42.3721 42.5493 42.5021 42.4769C42.632 42.4045 42.778 42.3683 42.9399 42.3683C43.1018 42.3683 43.2478 42.4045 43.3777 42.4769C43.5077 42.5493 43.6089 42.6505 43.6813 42.7804C43.7559 42.9104 43.7932 43.0573 43.7932 43.2213C43.7932 43.3853 43.7559 43.5323 43.6813 43.6622C43.6089 43.7922 43.5077 43.8944 43.3777 43.9689C43.2478 44.0414 43.1018 44.0776 42.9399 44.0776ZM42.9399 43.8763C43.0592 43.8763 43.1657 43.8497 43.2595 43.7964C43.3554 43.741 43.4299 43.6633 43.4832 43.5632C43.5365 43.4631 43.5631 43.3491 43.5631 43.2213C43.5631 43.0935 43.5365 42.9796 43.4832 42.8795C43.4299 42.7794 43.3554 42.7027 43.2595 42.6495C43.1657 42.5941 43.0592 42.5664 42.9399 42.5664C42.8206 42.5664 42.713 42.5941 42.6171 42.6495C42.5234 42.7027 42.4488 42.7794 42.3934 42.8795C42.3402 42.9796 42.3135 43.0935 42.3135 43.2213C42.3135 43.3491 42.3402 43.4631 42.3934 43.5632C42.4488 43.6633 42.5234 43.741 42.6171 43.7964C42.713 43.8497 42.8206 43.8763 42.9399 43.8763Z" fill="#383838"/>
<path d="M45.1129 42.3683C45.3238 42.3683 45.491 42.4301 45.6146 42.5536C45.7403 42.675 45.8032 42.8529 45.8032 43.0871V44.0616H45.5763V43.1095C45.5763 42.9349 45.5326 42.8017 45.4452 42.7102C45.3579 42.6186 45.2333 42.5728 45.0713 42.5728C44.8902 42.5728 44.7464 42.6271 44.6399 42.7357C44.5355 42.8422 44.4833 42.9902 44.4833 43.1798V44.0616H44.2564V42.3811H44.4737V42.691C44.5355 42.5887 44.6207 42.5099 44.7294 42.4546C44.8402 42.3971 44.968 42.3683 45.1129 42.3683Z" fill="#383838"/>
<path d="M47.2756 42.3683C47.4866 42.3683 47.6538 42.4301 47.7774 42.5536C47.9031 42.675 47.9659 42.8529 47.9659 43.0871V44.0616H47.739V43.1095C47.739 42.9349 47.6954 42.8017 47.608 42.7102C47.5206 42.6186 47.396 42.5728 47.2341 42.5728C47.053 42.5728 46.9092 42.6271 46.8027 42.7357C46.6983 42.8422 46.6461 42.9902 46.6461 43.1798V44.0616H46.4192V42.3811H46.6365V42.691C46.6983 42.5887 46.7835 42.5099 46.8921 42.4546C47.0029 42.3971 47.1308 42.3683 47.2756 42.3683Z" fill="#383838"/>
<path d="M50.0518 43.2916H48.6457C48.6585 43.4663 48.7256 43.6079 48.847 43.7165C48.9685 43.823 49.1219 43.8763 49.3072 43.8763C49.4116 43.8763 49.5075 43.8582 49.5948 43.822C49.6822 43.7836 49.7578 43.7283 49.8217 43.6558L49.9496 43.8028C49.875 43.8923 49.7813 43.9604 49.6683 44.0073C49.5576 44.0541 49.4351 44.0776 49.3008 44.0776C49.1283 44.0776 48.9749 44.0414 48.8406 43.9689C48.7086 43.8944 48.6052 43.7922 48.5307 43.6622C48.4561 43.5323 48.4188 43.3853 48.4188 43.2213C48.4188 43.0573 48.454 42.9104 48.5243 42.7804C48.5967 42.6505 48.6947 42.5493 48.8183 42.4769C48.944 42.4045 49.0846 42.3683 49.2401 42.3683C49.3956 42.3683 49.5352 42.4045 49.6588 42.4769C49.7823 42.5493 49.8793 42.6505 49.9496 42.7804C50.0199 42.9082 50.055 43.0552 50.055 43.2213L50.0518 43.2916ZM49.2401 42.5632C49.0782 42.5632 48.9418 42.6154 48.8311 42.7197C48.7224 42.822 48.6606 42.9562 48.6457 43.1223H49.8377C49.8228 42.9562 49.76 42.822 49.6492 42.7197C49.5405 42.6154 49.4042 42.5632 49.2401 42.5632Z" fill="#383838"/>
<path d="M51.2135 44.0776C51.0474 44.0776 50.8982 44.0414 50.7661 43.9689C50.6362 43.8965 50.5339 43.7953 50.4593 43.6654C50.3848 43.5334 50.3475 43.3853 50.3475 43.2213C50.3475 43.0573 50.3848 42.9104 50.4593 42.7804C50.5339 42.6505 50.6362 42.5493 50.7661 42.4769C50.8982 42.4045 51.0474 42.3683 51.2135 42.3683C51.3584 42.3683 51.4873 42.3971 51.6002 42.4546C51.7153 42.5099 51.8058 42.5919 51.8719 42.7006L51.7025 42.8156C51.6471 42.7325 51.5768 42.6708 51.4916 42.6303C51.4064 42.5877 51.3137 42.5664 51.2135 42.5664C51.0921 42.5664 50.9824 42.5941 50.8844 42.6495C50.7885 42.7027 50.7129 42.7794 50.6575 42.8795C50.6042 42.9796 50.5776 43.0935 50.5776 43.2213C50.5776 43.3513 50.6042 43.4663 50.6575 43.5664C50.7129 43.6644 50.7885 43.741 50.8844 43.7964C50.9824 43.8497 51.0921 43.8763 51.2135 43.8763C51.3137 43.8763 51.4064 43.856 51.4916 43.8156C51.5768 43.7751 51.6471 43.7133 51.7025 43.6303L51.8719 43.7453C51.8058 43.8539 51.7153 43.937 51.6002 43.9945C51.4852 44.0499 51.3563 44.0776 51.2135 44.0776Z" fill="#383838"/>
<path d="M53.2216 43.9593C53.179 43.9977 53.1257 44.0275 53.0618 44.0488C53 44.068 52.935 44.0776 52.8668 44.0776C52.7092 44.0776 52.5877 44.035 52.5025 43.9498C52.4173 43.8646 52.3747 43.7442 52.3747 43.5887V42.5728H52.0743V42.3811H52.3747V42.0137H52.6016V42.3811H53.1129V42.5728H52.6016V43.576C52.6016 43.6761 52.6261 43.7527 52.6751 43.806C52.7262 43.8571 52.7987 43.8827 52.8924 43.8827C52.9393 43.8827 52.984 43.8752 53.0266 43.8603C53.0714 43.8454 53.1097 43.8241 53.1417 43.7964L53.2216 43.9593Z" fill="#383838"/>
</svg>
