<svg width="56" height="48" viewBox="0 0 56 48" fill="none" xmlns="http://www.w3.org/2000/svg">
<path d="M55.6162 14.3405V34.0613C55.6162 37.616 53.9463 41.0252 50.9739 43.5387C48.0015 46.0522 43.9702 47.4643 39.7666 47.4643C35.563 47.4643 31.5316 46.0522 28.5592 43.5387C25.5868 41.0252 23.917 37.616 23.917 34.0613V14.3405C23.917 10.7858 25.5868 7.37669 28.5592 4.86314C31.5316 2.34959 35.563 0.9375 39.7666 0.9375C43.9702 0.9375 48.0015 2.34959 50.9739 4.86314C53.9463 7.37669 55.6162 10.7858 55.6162 14.3405ZM31.5552 34.0613C31.5552 35.903 32.4203 37.6692 33.9602 38.9714C35.5002 40.2736 37.5888 41.0052 39.7666 41.0052C41.9444 41.0052 44.033 40.2736 45.5729 38.9714C47.1129 37.6692 47.978 35.903 47.978 34.0613V14.3405C47.978 12.4989 47.1129 10.7326 45.5729 9.43041C44.033 8.12818 41.9444 7.39662 39.7666 7.39662C37.5888 7.39662 35.5002 8.12818 33.9602 9.43041C32.4203 10.7326 31.5552 12.4989 31.5552 14.3405V34.0613Z" fill="#383838"/>
<path d="M31.4638 14.3406V34.0614C31.4638 37.5897 29.8063 40.9735 26.856 43.4684C23.9057 45.9633 19.9043 47.3649 15.7319 47.3649C11.5595 47.3649 7.55806 45.9633 4.60775 43.4684C1.65745 40.9735 0 37.5897 0 34.0614V14.3406C0 10.8123 1.65745 7.42848 4.60775 4.93359C7.55806 2.43871 11.5595 1.03711 15.7319 1.03711C19.9043 1.03711 23.9057 2.43871 26.856 4.93359C29.8063 7.42848 31.4638 10.8123 31.4638 14.3406ZM7.58122 34.0614C7.58122 35.8895 8.43996 37.6426 9.96851 38.9352C11.4971 40.2278 13.5702 40.9539 15.7319 40.9539C17.8936 40.9539 19.9668 40.2278 21.4953 38.9352C23.0239 37.6426 23.8826 35.8895 23.8826 34.0614V14.3406C23.8826 12.5126 23.0239 10.7594 21.4953 9.46685C19.9668 8.17425 17.8936 7.44806 15.7319 7.44806C13.5702 7.44806 11.4971 8.17425 9.96851 9.46685C8.43996 10.7594 7.58122 12.5126 7.58122 14.3406V34.0614Z" fill="#383838"/>
</svg>
